PathFileType	4	(X/Y/Z)	E:\3-PhD\Data\MocapData\ElaboratedData\009\pre\dynamicElaborations\RunN1\RunN1.trc
DataRate	CameraRate	NumFrames	NumMarkers	Units	OrigDataRate	DataStartFrame
200	200	4	54	mm	200	557
Frame#	Time	FHD			LBHD			RBHD			C7			T10			CLAV			LSHO			LUUPA			LMUPA			LDUPA			LLEP			LMEP			LRAD			LUL			LRFIN			RSHO			RUPA1			RMUPA			RDUPA			RLEP			RMEP			RRAD			RUL			RUFIN			RASI			USACR			LSACR			RSACR			LTHI1			LTHI2			LTHI3			LTHI4			LTIB1			LTIB2			LTIB3			LTIB4			LLMAL			LHEE			LMT1			LMT2			RTHI			RTHI2			RTHI3			RTHI4			RLFC			RTIB1			RTIB2			RTIB3			RTIB4			RLMAL			RHEE			RMT1			RMT2			RMT5		
		X1	Y1	Z1	X2	Y2	Z2	X3	Y3	Z3	X4	Y4	Z4	X5	Y5	Z5	X6	Y6	Z6	X7	Y7	Z7	X8	Y8	Z8	X9	Y9	Z9	X10	Y10	Z10	X11	Y11	Z11	X12	Y12	Z12	X13	Y13	Z13	X14	Y14	Z14	X15	Y15	Z15	X16	Y16	Z16	X17	Y17	Z17	X18	Y18	Z18	X19	Y19	Z19	X20	Y20	Z20	X21	Y21	Z21	X22	Y22	Z22	X23	Y23	Z23	X24	Y24	Z24	X25	Y25	Z25	X26	Y26	Z26	X27	Y27	Z27	X28	Y28	Z28	X29	Y29	Z29	X30	Y30	Z30	X31	Y31	Z31	X32	Y32	Z32	X33	Y33	Z33	X34	Y34	Z34	X35	Y35	Z35	X36	Y36	Z36	X37	Y37	Z37	X38	Y38	Z38	X39	Y39	Z39	X40	Y40	Z40	X41	Y41	Z41	X42	Y42	Z42	X43	Y43	Z43	X44	Y44	Z44	X45	Y45	Z45	X46	Y46	Z46	X47	Y47	Z47	X48	Y48	Z48	X49	Y49	Z49	X50	Y50	Z50	X51	Y51	Z51	X52	Y52	Z52	X53	Y53	Z53	X54	Y54	Z54	

642	3.205000	-599.194921	1510.836205	437.154741	-769.926215	1564.729821	348.480002	-735.952786	1541.635311	468.853257	-868.185540	1444.111452	388.038278	-1057.365311	1139.204792	354.110984	-770.164527	1302.172807	375.280182	-783.531919	1392.387202	239.610775	-877.491660	1267.431826	112.303240	-862.514593	1223.246797	124.551440	-906.114514	1209.757573	85.805295	-968.792633	1115.546609	47.363887	-1019.900399	1108.084009	105.462775	-846.614953	912.713105	156.732282	-885.486373	868.729719	114.087392	-788.256184	867.731478	147.503079	-813.282066	1378.175934	542.240982	-933.931135	1276.780091	633.378249	-931.286950	1230.430296	630.272538	-983.202151	1236.764226	659.121241	-1082.799541	1143.667760	691.293887	-1107.803741	1133.397519	623.535383	-955.838071	914.064580	662.531260	-1006.197544	895.903614	709.844034	-902.267576	884.640385	713.685020	-937.824484	934.189396	459.096021	-1097.138193	1055.582148	354.386674	-1107.140798	1023.899321	327.167567	-1108.266742	1026.069423	385.828689	-1045.439924	691.563627	152.778586	-1033.065414	607.444687	146.845614	-988.562891	598.736732	161.400328	-1074.367817	561.870344	151.113949	-1229.405892	427.507248	212.195535	-1259.582294	502.956348	176.185913	-1270.249980	465.596907	194.869112	-1342.045251	484.921695	239.349395	-1464.144129	587.160675	254.604330	-1454.359997	667.542413	310.526375	-1573.253404	480.414717	330.698824	-1582.729219	482.723634	287.617058	-937.318388	706.450537	529.451344	-883.574695	670.309098	526.403826	-851.708592	681.387685	520.507966	-880.686212	588.534286	497.530841	-820.270192	501.144218	477.116800	-798.992321	291.885498	412.048503	-875.932205	218.711946	442.668393	-834.299863	213.486674	422.776825	-836.259666	171.785674	385.976802	-906.103111	87.710824	410.743368	-982.219237	48.880318	364.178916	-754.033889	56.743863	341.016589	-754.087008	56.326391	381.212770	-792.268846	36.453917	439.904723	
643	3.210000	-571.115239	1512.188912	436.358237	-742.222600	1565.330159	347.929532	-707.954580	1542.446551	468.273468	-840.657537	1444.560207	387.793069	-1029.596334	1139.519675	354.372040	-742.302788	1302.694933	374.594585	-757.031616	1391.759953	237.917420	-853.168857	1265.664105	112.781675	-839.101086	1221.331209	126.446555	-882.405765	1207.820820	87.348141	-948.188229	1115.529355	49.454613	-997.997967	1108.595452	108.346222	-836.302528	901.947195	149.146549	-878.167378	862.357218	105.091804	-781.359157	853.033675	137.980298	-785.357055	1378.063437	541.840698	-901.166630	1272.168617	632.935814	-897.058941	1225.981220	629.625504	-948.104631	1230.438834	659.935969	-1043.861280	1132.909567	693.120603	-1070.638669	1122.363212	626.406595	-908.439194	910.102738	659.947741	-956.373939	888.967880	708.111368	-852.299758	882.456551	709.444668	-910.475338	934.442307	460.461107	-1069.550470	1056.377391	354.581985	-1079.543437	1024.497135	327.512066	-1080.473348	1027.027286	386.204058	-1007.586771	690.268346	152.241469	-991.754803	606.787537	146.220090	-947.275943	599.684758	161.707890	-1031.335432	559.612499	149.580871	-1180.665110	425.669403	210.672352	-1210.710607	500.851512	173.949482	-1221.429612	463.736521	193.049825	-1293.232506	483.540115	237.297864	-1415.191775	585.504498	252.120746	-1406.943552	667.029269	306.976407	-1523.629740	478.864518	329.090571	-1532.668990	480.392217	285.821456	-912.762153	705.890571	529.957895	-859.659236	668.877922	526.850336	-827.658409	679.552493	521.239233	-858.291000	587.098520	498.021944	-799.809171	498.800346	477.463552	-788.029879	288.595010	411.547252	-867.975285	218.867718	442.773513	-826.981649	211.467054	422.061300	-831.399744	170.262690	385.608833	-904.969113	89.414219	410.795136	-982.457364	50.638274	364.244018	-754.167779	56.629438	340.728516	-754.422836	56.186623	381.112912	-792.732402	36.731536	439.975516	
644	3.215000	-543.115385	1513.731938	435.524178	-714.557534	1566.302670	347.367607	-680.010281	1543.542998	467.658818	-813.113792	1445.449323	387.449029	-1001.770146	1140.320490	354.775171	-714.573743	1303.633712	373.827762	-730.635000	1391.539574	236.304872	-828.951300	1264.627028	113.206569	-815.558126	1220.202773	127.871311	-858.806002	1206.730116	88.660672	-927.328447	1116.001251	51.493567	-975.835837	1109.451029	111.203650	-826.269234	892.922720	141.713479	-870.877690	857.820269	96.566598	-774.999910	840.394139	128.373158	-757.357067	1378.467491	541.287403	-868.598712	1268.522336	632.303847	-862.855606	1222.530356	628.827555	-913.213934	1225.082945	660.383094	-1004.577022	1123.140848	694.330074	-1033.028033	1112.177653	628.763560	-860.716009	907.733119	657.015876	-906.102564	883.752564	706.020969	-802.105895	882.053864	704.894580	-883.167085	935.102100	461.726102	-1041.871608	1057.533433	354.910224	-1051.912614	1025.544397	327.925791	-1052.621192	1028.287278	386.648084	-969.778141	689.965587	151.844948	-950.182694	607.347826	145.842332	-905.768370	601.959079	162.161401	-987.798578	558.508026	148.352441	-1131.197755	424.206645	209.452866	-1161.428213	498.935956	171.966010	-1172.043461	462.020890	191.448568	-1244.031779	481.919826	235.324176	-1366.492120	582.943168	249.586433	-1360.407388	665.629813	303.338830	-1473.754338	475.783881	327.283170	-1482.216766	476.490310	283.795860	-888.470695	705.486180	530.524886	-836.141333	667.456834	527.336990	-804.017113	677.625641	521.833979	-836.594513	585.640112	498.704186	-780.523003	495.943868	477.997949	-777.756862	285.436020	411.267125	-860.384922	219.034427	443.125722	-820.095149	209.590766	421.577054	-826.890504	169.076610	385.549938	-903.779094	91.270253	411.151395	-982.587125	52.865794	364.538306	-754.286005	56.774334	340.669973	-754.712890	56.178526	381.221275	-793.134714	36.916019	440.102042	
645	3.220000	-515.193644	1515.454775	434.648135	-686.929913	1567.645366	346.797536	-652.116106	1544.920333	467.013819	-785.591090	1446.743516	387.031164	-973.860634	1141.478405	355.294409	-686.958331	1304.967660	372.959711	-704.351064	1391.753849	234.776191	-804.916018	1264.392007	113.532375	-791.939357	1219.905423	128.722801	-835.430053	1206.563130	89.705671	-906.220480	1117.044277	53.428362	-953.447828	1110.779614	113.967482	-816.348297	885.685538	134.494439	-863.510020	855.103423	88.633442	-768.998965	829.856902	118.777104	-729.236922	1379.405782	540.573073	-836.289920	1265.874941	631.555660	-828.765538	1220.114202	627.962333	-878.682868	1220.758494	660.483437	-965.123903	1114.536445	694.954810	-995.040023	1103.012074	630.538500	-812.810071	907.096335	653.733040	-855.553944	880.418310	703.530024	-751.853331	883.573038	700.044218	-855.829208	936.153257	462.858150	-1014.048097	1058.968619	355.306719	-1024.202202	1026.935934	328.367792	-1024.691570	1029.790559	387.117912	-932.120785	690.649243	151.598298	-908.493406	609.144559	145.689248	-864.182143	605.585406	162.706055	-943.894979	558.608366	147.411167	-1081.131365	423.198295	208.574497	-1111.874692	497.263640	170.247596	-1122.224071	460.512544	190.102214	-1194.565038	480.126301	233.485407	-1318.155883	579.558010	247.065479	-1314.851129	663.356516	299.725629	-1423.698728	471.224179	325.286079	-1431.431064	471.106406	281.553479	-864.438930	705.191909	531.159186	-813.045669	665.979714	527.897560	-780.788530	675.490690	522.337030	-815.610638	584.132652	499.541347	-762.263498	492.626078	478.690711	-768.134303	282.426467	411.221826	-853.180290	219.256909	443.651761	-813.611278	207.920765	421.343614	-822.641403	168.210753	385.748445	-902.480716	93.288604	411.702235	-982.550136	55.615908	365.007163	-754.338611	57.025615	340.757186	-754.899941	56.202231	381.452349	-793.449996	37.003425	440.243199	
